<mxfile host="app.diagrams.net" modified="2023-06-09T09:18:46.471Z" agent="Mozilla/5.0 (Windows NT 10.0; Win64; x64) AppleWebKit/537.36 (KHTML, like Gecko) Chrome/114.0.0.0 Safari/537.36" etag="QI3Si-gsavf3_8xtauUC" version="21.3.7" type="device">
  <diagram name="Page-1" id="b5b7bab2-c9e2-2cf4-8b2a-24fd1a2a6d21">
    <mxGraphModel dx="607" dy="1933" grid="1" gridSize="10" guides="1" tooltips="1" connect="1" arrows="1" fold="1" page="1" pageScale="1" pageWidth="827" pageHeight="1169" background="none" math="0" shadow="0">
      <root>
        <mxCell id="0" />
        <mxCell id="1" parent="0" />
        <mxCell id="wRR1Uj6syd41ZtCw54oC-5" value="" style="shape=folder;fontStyle=1;tabWidth=110;tabHeight=30;tabPosition=left;html=1;boundedLbl=1;labelInHeader=1;container=1;collapsible=0;whiteSpace=wrap;fillColor=#b1ddf0;strokeColor=#000000;" parent="1" vertex="1">
          <mxGeometry x="1030" y="-40" width="730" height="720" as="geometry" />
        </mxCell>
        <mxCell id="wRR1Uj6syd41ZtCw54oC-6" value="" style="html=1;strokeColor=none;resizeWidth=1;resizeHeight=1;fillColor=none;part=1;connectable=0;allowArrows=0;deletable=0;whiteSpace=wrap;" parent="wRR1Uj6syd41ZtCw54oC-5" vertex="1">
          <mxGeometry width="677.2289156626506" height="504" relative="1" as="geometry">
            <mxPoint y="30" as="offset" />
          </mxGeometry>
        </mxCell>
        <mxCell id="1uNvhGJW9JCD165wkA-X-1" value="&lt;b&gt;src::main::java::purchases&lt;/b&gt;" style="text;html=1;align=center;verticalAlign=middle;resizable=0;points=[];autosize=1;strokeColor=none;fillColor=none;" vertex="1" parent="wRR1Uj6syd41ZtCw54oC-5">
          <mxGeometry x="275" y="25.41176470588235" width="180" height="30" as="geometry" />
        </mxCell>
        <mxCell id="wRR1Uj6syd41ZtCw54oC-53" value="" style="shape=folder;fontStyle=1;tabWidth=110;tabHeight=30;tabPosition=left;html=1;boundedLbl=1;labelInHeader=1;container=1;collapsible=0;whiteSpace=wrap;fillColor=#b1ddf0;strokeColor=#000000;" parent="1" vertex="1">
          <mxGeometry x="1310" y="40" width="210" height="180" as="geometry" />
        </mxCell>
        <mxCell id="wRR1Uj6syd41ZtCw54oC-54" value="" style="html=1;strokeColor=none;resizeWidth=1;resizeHeight=1;fillColor=none;part=1;connectable=0;allowArrows=0;deletable=0;whiteSpace=wrap;" parent="wRR1Uj6syd41ZtCw54oC-53" vertex="1">
          <mxGeometry width="210" height="126.00000000000001" relative="1" as="geometry">
            <mxPoint y="30" as="offset" />
          </mxGeometry>
        </mxCell>
        <mxCell id="wRR1Uj6syd41ZtCw54oC-24" value="Presentation layer" style="text;html=1;align=center;verticalAlign=middle;resizable=0;points=[];autosize=1;strokeColor=none;fillColor=none;fontStyle=1;fontSize=15;" parent="wRR1Uj6syd41ZtCw54oC-53" vertex="1">
          <mxGeometry x="30" y="30" width="150" height="30" as="geometry" />
        </mxCell>
        <mxCell id="wRR1Uj6syd41ZtCw54oC-17" value="controller" style="shape=folder;fontStyle=1;tabWidth=110;tabHeight=30;tabPosition=left;html=1;boundedLbl=1;labelInHeader=1;container=1;collapsible=0;whiteSpace=wrap;fillColor=#b1ddf0;strokeColor=#000000;" parent="wRR1Uj6syd41ZtCw54oC-53" vertex="1">
          <mxGeometry x="30.000000000000227" y="60" width="149.22" height="100" as="geometry" />
        </mxCell>
        <mxCell id="wRR1Uj6syd41ZtCw54oC-18" value="AppController" style="html=1;strokeColor=none;resizeWidth=1;resizeHeight=1;fillColor=none;part=1;connectable=0;allowArrows=0;deletable=0;whiteSpace=wrap;" parent="wRR1Uj6syd41ZtCw54oC-17" vertex="1">
          <mxGeometry width="149.22" height="70.00000000000001" relative="1" as="geometry">
            <mxPoint y="30" as="offset" />
          </mxGeometry>
        </mxCell>
        <mxCell id="wRR1Uj6syd41ZtCw54oC-35" value="" style="shape=folder;fontStyle=1;tabWidth=110;tabHeight=30;tabPosition=left;html=1;boundedLbl=1;labelInHeader=1;container=1;collapsible=0;whiteSpace=wrap;fillColor=#b1ddf0;strokeColor=#000000;" parent="1" vertex="1">
          <mxGeometry x="1210" y="480" width="410" height="180" as="geometry" />
        </mxCell>
        <mxCell id="wRR1Uj6syd41ZtCw54oC-36" value="" style="html=1;strokeColor=none;resizeWidth=1;resizeHeight=1;fillColor=none;part=1;connectable=0;allowArrows=0;deletable=0;whiteSpace=wrap;" parent="wRR1Uj6syd41ZtCw54oC-35" vertex="1">
          <mxGeometry width="410" height="130" relative="1" as="geometry">
            <mxPoint y="30" as="offset" />
          </mxGeometry>
        </mxCell>
        <mxCell id="wRR1Uj6syd41ZtCw54oC-33" value="" style="shape=folder;fontStyle=1;tabWidth=110;tabHeight=30;tabPosition=left;html=1;boundedLbl=1;labelInHeader=1;container=1;collapsible=0;whiteSpace=wrap;fillColor=#b1ddf0;strokeColor=#000000;" parent="1" vertex="1">
          <mxGeometry x="1210" y="260" width="410" height="180" as="geometry" />
        </mxCell>
        <mxCell id="wRR1Uj6syd41ZtCw54oC-34" value="" style="html=1;strokeColor=none;resizeWidth=1;resizeHeight=1;fillColor=none;part=1;connectable=0;allowArrows=0;deletable=0;whiteSpace=wrap;" parent="wRR1Uj6syd41ZtCw54oC-33" vertex="1">
          <mxGeometry width="410" height="126.00000000000001" relative="1" as="geometry">
            <mxPoint y="30" as="offset" />
          </mxGeometry>
        </mxCell>
        <mxCell id="wRR1Uj6syd41ZtCw54oC-19" value="service" style="shape=folder;fontStyle=1;tabWidth=110;tabHeight=30;tabPosition=left;html=1;boundedLbl=1;labelInHeader=1;container=1;collapsible=0;whiteSpace=wrap;fillColor=#b1ddf0;strokeColor=#000000;" parent="wRR1Uj6syd41ZtCw54oC-33" vertex="1">
          <mxGeometry x="45.88999999999987" y="72.5" width="149.22" height="93.75" as="geometry" />
        </mxCell>
        <mxCell id="wRR1Uj6syd41ZtCw54oC-20" value="AppService" style="html=1;strokeColor=none;resizeWidth=1;resizeHeight=1;fillColor=none;part=1;connectable=0;allowArrows=0;deletable=0;whiteSpace=wrap;" parent="wRR1Uj6syd41ZtCw54oC-19" vertex="1">
          <mxGeometry width="149.22" height="65.62500000000001" relative="1" as="geometry">
            <mxPoint y="30" as="offset" />
          </mxGeometry>
        </mxCell>
        <mxCell id="wRR1Uj6syd41ZtCw54oC-26" value="Business layer" style="text;html=1;align=center;verticalAlign=middle;resizable=0;points=[];autosize=1;strokeColor=none;fillColor=none;fontStyle=1;fontSize=15;" parent="wRR1Uj6syd41ZtCw54oC-33" vertex="1">
          <mxGeometry x="139.99999999999974" y="30" width="130" height="30" as="geometry" />
        </mxCell>
        <mxCell id="wRR1Uj6syd41ZtCw54oC-29" value="service" style="shape=folder;fontStyle=1;tabWidth=110;tabHeight=30;tabPosition=left;html=1;boundedLbl=1;labelInHeader=1;container=1;collapsible=0;whiteSpace=wrap;fillColor=#b1ddf0;strokeColor=#000000;" parent="wRR1Uj6syd41ZtCw54oC-33" vertex="1">
          <mxGeometry x="225.88999999999987" y="70" width="149.22" height="93.75" as="geometry" />
        </mxCell>
        <mxCell id="wRR1Uj6syd41ZtCw54oC-30" value="KafkaService" style="html=1;strokeColor=none;resizeWidth=1;resizeHeight=1;fillColor=none;part=1;connectable=0;allowArrows=0;deletable=0;whiteSpace=wrap;" parent="wRR1Uj6syd41ZtCw54oC-29" vertex="1">
          <mxGeometry width="149.22" height="65.62500000000001" relative="1" as="geometry">
            <mxPoint y="30" as="offset" />
          </mxGeometry>
        </mxCell>
        <mxCell id="wRR1Uj6syd41ZtCw54oC-49" value="" style="html=1;endArrow=open;endSize=12;dashed=1;verticalAlign=bottom;rounded=0;exitX=0.5;exitY=1;exitDx=0;exitDy=0;exitPerimeter=0;" parent="1" source="wRR1Uj6syd41ZtCw54oC-33" target="wRR1Uj6syd41ZtCw54oC-35" edge="1">
          <mxGeometry width="160" relative="1" as="geometry">
            <mxPoint x="1434" y="230" as="sourcePoint" />
            <mxPoint x="1434" y="290" as="targetPoint" />
          </mxGeometry>
        </mxCell>
        <mxCell id="wRR1Uj6syd41ZtCw54oC-61" value="" style="html=1;endArrow=open;endSize=12;dashed=1;verticalAlign=bottom;rounded=0;exitX=0.5;exitY=1;exitDx=0;exitDy=0;exitPerimeter=0;" parent="1" source="wRR1Uj6syd41ZtCw54oC-53" target="wRR1Uj6syd41ZtCw54oC-33" edge="1">
          <mxGeometry width="160" relative="1" as="geometry">
            <mxPoint x="1431" y="450" as="sourcePoint" />
            <mxPoint x="1420" y="250" as="targetPoint" />
          </mxGeometry>
        </mxCell>
        <mxCell id="wRR1Uj6syd41ZtCw54oC-62" value="" style="shape=folder;fontStyle=1;tabWidth=110;tabHeight=30;tabPosition=left;html=1;boundedLbl=1;labelInHeader=1;container=1;collapsible=0;whiteSpace=wrap;fillColor=#b1ddf0;strokeColor=#000000;" parent="1" vertex="1">
          <mxGeometry x="1600.0000000000002" y="100" width="149.22" height="100" as="geometry" />
        </mxCell>
        <mxCell id="wRR1Uj6syd41ZtCw54oC-63" value="Config" style="html=1;strokeColor=none;resizeWidth=1;resizeHeight=1;fillColor=none;part=1;connectable=0;allowArrows=0;deletable=0;whiteSpace=wrap;" parent="wRR1Uj6syd41ZtCw54oC-62" vertex="1">
          <mxGeometry width="149.22" height="70.00000000000001" relative="1" as="geometry">
            <mxPoint y="30" as="offset" />
          </mxGeometry>
        </mxCell>
        <mxCell id="wRR1Uj6syd41ZtCw54oC-64" value="" style="shape=folder;fontStyle=1;tabWidth=110;tabHeight=30;tabPosition=left;html=1;boundedLbl=1;labelInHeader=1;container=1;collapsible=0;whiteSpace=wrap;fillColor=#b1ddf0;strokeColor=#000000;" parent="1" vertex="1">
          <mxGeometry x="1040.0000000000002" y="100" width="149.22" height="100" as="geometry" />
        </mxCell>
        <mxCell id="wRR1Uj6syd41ZtCw54oC-65" value="App" style="html=1;strokeColor=none;resizeWidth=1;resizeHeight=1;fillColor=none;part=1;connectable=0;allowArrows=0;deletable=0;whiteSpace=wrap;" parent="wRR1Uj6syd41ZtCw54oC-64" vertex="1">
          <mxGeometry width="149.22" height="70.00000000000001" relative="1" as="geometry">
            <mxPoint y="30" as="offset" />
          </mxGeometry>
        </mxCell>
        <mxCell id="wRR1Uj6syd41ZtCw54oC-66" value="" style="html=1;endArrow=open;endSize=12;dashed=1;verticalAlign=bottom;rounded=0;exitX=0;exitY=0;exitDx=149.22;exitDy=65;exitPerimeter=0;entryX=-0.019;entryY=0.706;entryDx=0;entryDy=0;entryPerimeter=0;" parent="1" source="wRR1Uj6syd41ZtCw54oC-64" target="wRR1Uj6syd41ZtCw54oC-53" edge="1">
          <mxGeometry width="160" relative="1" as="geometry">
            <mxPoint x="1425" y="230" as="sourcePoint" />
            <mxPoint x="1425" y="270" as="targetPoint" />
          </mxGeometry>
        </mxCell>
        <mxCell id="wRR1Uj6syd41ZtCw54oC-67" value="" style="html=1;endArrow=open;endSize=12;dashed=1;verticalAlign=bottom;rounded=0;exitX=0;exitY=0;exitDx=210;exitDy=105;exitPerimeter=0;entryX=0;entryY=0;entryDx=0;entryDy=65;entryPerimeter=0;" parent="1" source="wRR1Uj6syd41ZtCw54oC-53" target="wRR1Uj6syd41ZtCw54oC-62" edge="1">
          <mxGeometry width="160" relative="1" as="geometry">
            <mxPoint x="1199" y="175" as="sourcePoint" />
            <mxPoint x="1316" y="177" as="targetPoint" />
          </mxGeometry>
        </mxCell>
        <mxCell id="wRR1Uj6syd41ZtCw54oC-68" value="" style="html=1;endArrow=open;endSize=12;dashed=1;verticalAlign=bottom;rounded=0;exitX=0;exitY=0;exitDx=410;exitDy=30;exitPerimeter=0;entryX=0.25;entryY=1;entryDx=0;entryDy=0;entryPerimeter=0;edgeStyle=orthogonalEdgeStyle;" parent="1" source="wRR1Uj6syd41ZtCw54oC-33" target="wRR1Uj6syd41ZtCw54oC-62" edge="1">
          <mxGeometry width="160" relative="1" as="geometry">
            <mxPoint x="1530" y="155" as="sourcePoint" />
            <mxPoint x="1610" y="175" as="targetPoint" />
          </mxGeometry>
        </mxCell>
        <mxCell id="wRR1Uj6syd41ZtCw54oC-69" value="" style="html=1;endArrow=open;endSize=12;dashed=1;verticalAlign=bottom;rounded=0;exitX=0;exitY=0;exitDx=410;exitDy=102.5;exitPerimeter=0;entryX=0.5;entryY=1;entryDx=0;entryDy=0;entryPerimeter=0;edgeStyle=orthogonalEdgeStyle;" parent="1" source="wRR1Uj6syd41ZtCw54oC-35" target="wRR1Uj6syd41ZtCw54oC-62" edge="1">
          <mxGeometry width="160" relative="1" as="geometry">
            <mxPoint x="1540" y="165" as="sourcePoint" />
            <mxPoint x="1620" y="185" as="targetPoint" />
          </mxGeometry>
        </mxCell>
        <mxCell id="wRR1Uj6syd41ZtCw54oC-28" value="Data layer" style="text;html=1;align=center;verticalAlign=middle;resizable=0;points=[];autosize=1;strokeColor=none;fillColor=none;fontStyle=1;fontSize=15;" parent="1" vertex="1">
          <mxGeometry x="1365" y="510.00333333333333" width="100" height="30" as="geometry" />
        </mxCell>
        <mxCell id="wRR1Uj6syd41ZtCw54oC-15" value="repository" style="shape=folder;fontStyle=1;tabWidth=110;tabHeight=30;tabPosition=left;html=1;boundedLbl=1;labelInHeader=1;container=1;collapsible=0;whiteSpace=wrap;fillColor=#b1ddf0;strokeColor=#000000;" parent="1" vertex="1">
          <mxGeometry x="1260" y="546.71" width="151" height="100" as="geometry" />
        </mxCell>
        <mxCell id="wRR1Uj6syd41ZtCw54oC-16" value="AppRepository" style="html=1;strokeColor=none;resizeWidth=1;resizeHeight=1;fillColor=none;part=1;connectable=0;allowArrows=0;deletable=0;whiteSpace=wrap;" parent="wRR1Uj6syd41ZtCw54oC-15" vertex="1">
          <mxGeometry width="150.99999999999997" height="70.00000000000001" relative="1" as="geometry">
            <mxPoint y="30" as="offset" />
          </mxGeometry>
        </mxCell>
        <mxCell id="wRR1Uj6syd41ZtCw54oC-13" value="model" style="shape=folder;fontStyle=1;tabWidth=110;tabHeight=30;tabPosition=left;html=1;boundedLbl=1;labelInHeader=1;container=1;collapsible=0;whiteSpace=wrap;fillColor=#b1ddf0;strokeColor=#000000;" parent="1" vertex="1">
          <mxGeometry x="1439.5" y="550.1300000000001" width="151" height="96.58" as="geometry" />
        </mxCell>
        <mxCell id="wRR1Uj6syd41ZtCw54oC-14" value="AppModel" style="html=1;strokeColor=none;resizeWidth=1;resizeHeight=1;fillColor=none;part=1;connectable=0;allowArrows=0;deletable=0;whiteSpace=wrap;" parent="wRR1Uj6syd41ZtCw54oC-13" vertex="1">
          <mxGeometry width="151" height="67.606" relative="1" as="geometry">
            <mxPoint y="30" as="offset" />
          </mxGeometry>
        </mxCell>
        <mxCell id="wRR1Uj6syd41ZtCw54oC-47" value="" style="endArrow=open;startArrow=none;endFill=0;startFill=0;endSize=8;html=1;verticalAlign=bottom;dashed=1;labelBackgroundColor=none;rounded=0;exitX=0;exitY=0;exitDx=151;exitDy=65;exitPerimeter=0;entryX=0;entryY=0;entryDx=0;entryDy=63.29;entryPerimeter=0;" parent="1" source="wRR1Uj6syd41ZtCw54oC-15" edge="1" target="wRR1Uj6syd41ZtCw54oC-13">
          <mxGeometry width="160" relative="1" as="geometry">
            <mxPoint x="1509.5" y="586.71" as="sourcePoint" />
            <mxPoint x="1509.5" y="656.71" as="targetPoint" />
          </mxGeometry>
        </mxCell>
      </root>
    </mxGraphModel>
  </diagram>
</mxfile>
